<?xml version="1.0" encoding="utf-8"?>
<!-- Generator: Adobe Illustrator 24.0.0, SVG Export Plug-In . SVG Version: 6.00 Build 0)  -->
<svg version="1.1" id="Capa_1" xmlns="http://www.w3.org/2000/svg" xmlns:xlink="http://www.w3.org/1999/xlink" x="0px" y="0px"
	 viewBox="0 0 512 107" style="enableBackground:new 0 0 512 107;" xml:space="preserve">
<style type="text/css">
	.st0{fill:#FFFFFF;}
	.st1{fill:#5FFF71;}
	.st2{enableBackground:new    ;}
</style>
<title>Group</title>
<desc>Created with Sketch.</desc>
<g>
	<g>
		<path class="st0" d="M56.6,73.3v13.3H50V73.3H56.6z M53.3,23.3L76.6,70H30L53.3,23.3z"/>
		<g>
			<polygon class="st1" points="75.3,62.1 55.5,81.8 35.8,62.1 24.3,73.5 55.5,104.7 66.9,93.3 66.9,93.3 86.7,73.5 			"/>
			<polygon class="st1" points="19.8,57.8 14.2,63.4 19.8,69 25.4,63.4 			"/>
			<polygon class="st1" points="10.1,48.1 4.5,53.7 10,59.2 15.6,53.6 			"/>
			<polygon class="st1" points="25.5,43.8 19.9,38.3 14.3,43.9 19.8,49.4 			"/>
			<polygon class="st1" points="29.6,59.2 35.2,53.6 29.7,48.1 24.1,53.7 			"/>
			<polygon class="st1" points="85.5,63.6 91.1,69.2 96.7,63.6 91.1,58 			"/>
			<polygon class="st1" points="75.8,53.9 81.3,59.4 86.9,53.8 81.4,48.3 			"/>
			<polygon class="st1" points="91.1,49.6 96.7,44 91.2,38.5 85.6,44.1 			"/>
			<polygon class="st1" points="101,48.2 95.4,53.8 100.9,59.4 106.5,53.8 			"/>
			<g>
				<g class="st2">
					<path class="st1" d="M44.7,50.1l5.5-1.5v11.2h8.6c1.7,0,2.9-0.9,3.7-2.7c0.6-1.2,0.8-2.5,0.8-4c0-2.3-0.6-4-1.7-5.2
						c-0.8-0.8-1.7-1.2-2.9-1.2h-14l1.5-4.9h13.2c3.1,0,5.6,1.3,7.4,3.9c1.5,2.2,2.3,4.8,2.3,7.7c0,3.2-0.8,5.8-2.5,7.9
						c-1.8,2.2-4.2,3.3-7.2,3.3H44.7V50.1z"/>
				</g>
			</g>
			<polygon class="st1" points="75.3,45.2 55.5,25.4 35.8,45.2 24.3,33.8 55.5,2.6 66.9,14 66.9,14 86.7,33.8 			"/>
		</g>
		<g class="st2">
			<path class="st0" d="M142.2,46.4l10-2.7v20.6h15.7c3,0,5.3-1.7,6.9-5c1-2.1,1.5-4.6,1.5-7.3c0-4.1-1-7.3-3.1-9.5
				c-1.4-1.5-3.2-2.3-5.3-2.3h-25.7l2.7-8.9h24.2c5.7,0,10.2,2.4,13.6,7.2c2.8,4,4.2,8.7,4.2,14.2c0,5.8-1.5,10.6-4.6,14.4
				c-3.3,4-7.6,6.1-13.1,6.1h-26.9V46.4z"/>
			<path class="st0" d="M201.8,56.7v7.5h30.6l-2.7,8.9h-37.9V31.2h40.6l-2.7,8.9h-27.9v7.6h26v8.9H201.8z"/>
			<path class="st0" d="M248.4,56.7v16.5h-10V31.2h40l-2.7,8.9h-27.3v7.6h25.5v8.9H248.4z"/>
			<path class="st0" d="M282.7,31.2h10v41.9h-10V31.2z"/>
			<path class="st0" d="M314,56.6c-5.6,0-9.8-1.8-12.6-5.4c-1.7-2.1-2.5-4.6-2.5-7.3c0-3.7,1.4-6.7,4.1-9.1s6.4-3.6,10.9-3.6h28.5
				l-2.7,8.9h-25.7c-2.1,0-3.6,0.8-4.3,2.4c-0.2,0.5-0.3,1-0.3,1.5c0,1.5,0.7,2.6,2.2,3.3c0.7,0.3,1.5,0.5,2.4,0.5h14.4
				c5.4,0,9.5,1.7,12.2,5.2c1.8,2.2,2.6,4.7,2.6,7.5c0,3.7-1.4,6.7-4.1,9.1c-2.7,2.4-6.3,3.6-10.8,3.6H299l2.7-8.9h26.8
				c2.2,0,3.6-0.8,4.3-2.3c0.2-0.5,0.3-0.9,0.3-1.4c0-1.5-0.7-2.6-2.1-3.3c-0.7-0.4-1.6-0.5-2.5-0.5H314z"/>
			<path class="st0" d="M358.8,74.2l-13.2-43h10.5l8,30.3l11.8-30.3h6.1l11.8,30.3l8-30.3h10.5l-13.6,40.3l-10,2.7l-9.8-26.6
				l-10.1,23.9L358.8,74.2z"/>
			<path class="st0" d="M424.1,67.6l3.6-8.5h11.7l-8.2-17.4l-14.6,31.5h-10.5L426,32.9l10-2.7l20.6,43h-10.5l-2.6-5.6H424.1z"/>
			<path class="st0" d="M459.7,46.3l10-2.7V51h19.5c2,0,3.3-1,4.1-3c0.3-0.8,0.5-1.7,0.5-2.5c0-2.1-0.7-3.7-2.2-4.7
				c-0.7-0.5-1.5-0.7-2.4-0.7h-29.5l2.7-8.9h26.4c5.4,0,9.5,1.9,12.5,5.7c2,2.7,3.1,5.7,3.1,9.1c0,4.1-1.5,7.5-4.4,10.1
				c-2.8,2.5-6.6,3.8-11.2,3.8h-19.1v13.2h-10V46.3z"/>
		</g>
	</g>
</g>
</svg>
