<?xml version="1.0" encoding="utf-8"?>
<!-- Generator: Adobe Illustrator 24.0.0, SVG Export Plug-In . SVG Version: 6.00 Build 0)  -->
<svg version="1.1" id="Layer_1" xmlns="http://www.w3.org/2000/svg" xmlns:xlink="http://www.w3.org/1999/xlink" x="0px" y="0px"
	 viewBox="0 0 160 108" style="enableBackground:new 0 0 160 108;" xml:space="preserve">
<style type="text/css">
	.st0{fill:#F2F2F2;}
	.st1{fill:url(#SVGID_5_);}
	.st2{opacity:0.5;fill:url(#SVGID_6_);enableBackground:new    ;}
	.st3{opacity:0.5;fill:url(#SVGID_7_);enableBackground:new    ;}
	.st4{fill:#10243E;}
	.st5{fill:#031833;}
	.st6{fill:url(#SVGID_8_);}
	.st7{opacity:0.5;fill:url(#SVGID_9_);enableBackground:new    ;}
	.st8{opacity:0.5;fill:url(#SVGID_10_);enableBackground:new    ;}
	.st9{fill:url(#SVGID_11_);}
	.st10{opacity:0.5;fill:url(#SVGID_12_);enableBackground:new    ;}
	.st11{fill:#00051F;}
	.st12{opacity:0.5;fill:url(#SVGID_13_);enableBackground:new    ;}
	.st13{fill:url(#SVGID_14_);}
	.st14{opacity:0.5;fill:url(#SVGID_15_);enableBackground:new    ;}
	.st15{opacity:0.5;fill:url(#SVGID_16_);enableBackground:new    ;}
	.st16{fill:url(#SVGID_17_);}
	.st17{fill:#63FC12;}
	.st18{opacity:0.47;}
	.st19{fill:#2A5D94;}
	.st20{clip-path:url(#SVGID_20_);}
	.st21{clip-path:url(#SVGID_21_);fill:url(#SVGID_22_);}
	.st22{clip-path:url(#SVGID_25_);}
	.st23{clip-path:url(#SVGID_26_);fill:url(#SVGID_27_);}
	.st24{opacity:0.68;fill:url(#SVGID_28_);enableBackground:new    ;}
	.st25{opacity:0.68;fill:url(#SVGID_29_);enableBackground:new    ;}
	.st26{fill:url(#SVGID_30_);}
	.st27{opacity:0.5;fill:url(#SVGID_31_);enableBackground:new    ;}
	.st28{fill:url(#SVGID_32_);}
	.st29{opacity:0.5;fill:url(#SVGID_33_);enableBackground:new    ;}
	.st30{fill:url(#SVGID_34_);}
	.st31{opacity:0.5;fill:url(#SVGID_35_);enableBackground:new    ;}
	.st32{fill:url(#SVGID_36_);}
	.st33{opacity:0.5;fill:url(#SVGID_37_);enableBackground:new    ;}
	.st34{opacity:0.81;fill:url(#SVGID_38_);enableBackground:new    ;}
	.st35{fill:url(#SVGID_39_);}
	.st36{fill:url(#SVGID_40_);}
	.st37{opacity:0.3;}
	.st38{fill:#251539;}
	.st39{opacity:0.2;fill:#63FC12;enableBackground:new    ;}
	.st40{opacity:0.9;fill:#63FC12;enableBackground:new    ;}
	.st41{opacity:0.4;fill:#63FC12;enableBackground:new    ;}
	.st42{opacity:0.8;fill:#63FC12;enableBackground:new    ;}
	.st43{opacity:0.6;fill:#63FC12;enableBackground:new    ;}
	.st44{clip-path:url(#SVGID_43_);}
	.st45{clip-path:url(#SVGID_44_);fill:url(#SVGID_45_);}
	.st46{clip-path:url(#SVGID_48_);}
	.st47{clip-path:url(#SVGID_49_);fill:url(#SVGID_50_);}
	.st48{opacity:0.68;fill:url(#SVGID_51_);enableBackground:new    ;}
</style>
<g>
	<path class="st0" d="M82.6,146.9c0,1.9-16.4,3.4-36.6,3.4s-36.6-1.5-36.6-3.4c0-1.9,16.4-3.4,36.6-3.4S82.6,145,82.6,146.9z"/>
	<g>
		
			<linearGradient id="SVGID_5_" gradientUnits="userSpaceOnUse" x1="321.4585" y1="4.9601" x2="340.7959" y2="11.4954" gradientTransform="matrix(1 0 0 -1 -318.6768 110.1417)">
			<stop  offset="0" style="stop-color:#FFFFFF"/>
			<stop  offset="1" style="stop-color:#A7C8DF"/>
		</linearGradient>
		<path class="st1" d="M18.9,85.2c-0.5,0.1-7.1,13.9-7.6,29.3c0,0,0.9,1.6,3.8,1c4.6-5.2,12.8-29.5,12.8-29.5S25.7,83.4,18.9,85.2z"
			/>
		
			<linearGradient id="SVGID_6_" gradientUnits="userSpaceOnUse" x1="-313.2909" y1="-71.4957" x2="-321.1273" y2="-53.0893" gradientTransform="matrix(-0.9821 0.1883 -0.1883 -0.9821 -305.4834 104.7621)">
			<stop  offset="0" style="stop-color:#FFFFFF"/>
			<stop  offset="1" style="stop-color:#C2D9E9"/>
		</linearGradient>
		<path class="st2" d="M17.3,100.5c-2.5,2.3-4.2,5.2-5.5,8.3c1.6-12.9,6.7-23.4,7.1-23.5c6.8-1.9,9,0.9,9,0.9s-2,5.9-4.5,12.4
			C21.3,97.5,18.8,99,17.3,100.5z"/>
		
			<linearGradient id="SVGID_7_" gradientUnits="userSpaceOnUse" x1="-313.304" y1="-71.4689" x2="-321.1332" y2="-53.0794" gradientTransform="matrix(-0.9821 0.1883 -0.1883 -0.9821 -305.4834 104.7621)">
			<stop  offset="0" style="stop-color:#FFFFFF"/>
			<stop  offset="1" style="stop-color:#C2D9E9"/>
		</linearGradient>
		<path class="st3" d="M16.3,98.7c-1.1,0.9-2.2,1.8-3.3,2.9c2.1-9.4,5.5-16.3,5.9-16.4c6.8-1.9,9,0.9,9,0.9s-1.7,4.8-3.8,10.5
			C21.5,95.8,18.4,97.2,16.3,98.7z"/>
		<path class="st4" d="M15.2,115.9c-0.4,0.1-0.6,0.6-0.5,1c0.1,0.4,0.3,0.8,0.4,1.2c0,0.3,0,0.6,0,0.9c-0.1,0.6-0.1,1.3-0.2,1.9
			c0,0.1,0,0.2-0.1,0.3s-0.2,0.1-0.3,0.1c-0.3-0.1-0.5-0.4-0.6-0.7c-0.1-0.3-0.1-0.7-0.2-1c0-0.1-0.1-0.2-0.2-0.2
			c-0.1,0-0.1,0-0.2,0c-0.3,0-0.6,0.1-0.8,0.2c-0.2,0.2-0.3,0.5-0.2,0.8c0.3,0.1,0.5,0.4,0.5,0.7c0.2,0.1,0.5,0.2,0.6,0.4
			c0.1,0.2,0.1,0.6-0.1,0.7c-0.1,0.1-0.2,0-0.4,0c-0.3,0-0.6-0.1-0.9-0.1c-0.2,0-0.5-0.1-0.7-0.2c-0.3-0.2-0.3-0.4-0.4-0.7
			c0-0.1-0.1-0.6-0.2-0.7c0,0-0.4-0.2-0.8-0.6c-0.4-0.3-0.1-1.5-0.1-1.5s-0.4-0.6-0.1-1.4c0.3-0.8,1.2-2.8,1.2-2.8l0.8-6
			c2.4,2.2,6.6,1.7,6.6,1.7C17.4,112.5,15.2,115.9,15.2,115.9z"/>
		<path class="st5" d="M15.2,115.9c0,0,2.2-3.4,3.2-5.8c0,0-0.5,0.1-1.3,0.1c-0.2,0.8-0.4,1.7-0.7,2.4c0,0.6-0.7,1.5-1,1.9
			c-0.3,0.6-0.6,1.2-0.9,1.8c-0.1,0.1-0.1,0.2-0.2,0.4c-0.1,0.4,0.1,0.8,0.3,1.2c0,0.5,0.2,0.9,0.2,1.4c0,0.4-0.1,0.9-0.2,1.3
			c0,0.1,0,0.2-0.1,0.2c-0.1,0-0.2-0.1-0.2-0.2c-0.1-0.2-0.1-0.3-0.1-0.5c0-0.5-0.1-0.9-0.3-1.3c0-0.1,0-0.1-0.1-0.2
			c0-0.1-0.1-0.1-0.2-0.1c-0.3-0.1-0.6-0.1-0.9-0.2c-0.1,0-0.2,0-0.2,0c-0.7,0.1-0.9,1.5-1.2,2.1c0.3,0.6,0.6,1.1,0.8,1.7
			c0.3,0,0.5,0.1,0.8,0.1c0.1,0,0.3,0,0.4,0c0.2-0.1,0.2-0.4,0.1-0.7s-0.4-0.3-0.6-0.4c0-0.3-0.2-0.6-0.5-0.7
			c-0.1-0.2,0-0.6,0.2-0.8s0.5-0.2,0.8-0.2c0.1,0,0.1,0,0.2,0c0.1,0,0.1,0.1,0.2,0.2c0.1,0.3,0.1,0.7,0.2,1c0.1,0.3,0.3,0.7,0.6,0.7
			c0.1,0,0.2,0,0.3-0.1s0.1-0.2,0.1-0.3c0.1-0.6,0.1-1.3,0.2-1.9c0-0.3,0-0.6,0-0.9c-0.1-0.4-0.3-0.8-0.4-1.2
			C14.6,116.6,14.8,116,15.2,115.9z"/>
		
			<linearGradient id="SVGID_8_" gradientUnits="userSpaceOnUse" x1="422.3472" y1="21.7331" x2="413.3949" y2="45.1731" gradientTransform="matrix(0.9966 8.260000e-02 8.260000e-02 -0.9966 -342.6331 109.4794)">
			<stop  offset="0" style="stop-color:#FFFFFF"/>
			<stop  offset="1" style="stop-color:#A7C8DF"/>
		</linearGradient>
		<path class="st6" d="M73.2,85.2c0.5,0.1,7.1,13.9,7.6,29.3c0,0-0.9,1.6-3.8,1c-4.6-5.2-12.8-29.5-12.8-29.5S66.4,83.4,73.2,85.2z"
			/>
		
			<linearGradient id="SVGID_9_" gradientUnits="userSpaceOnUse" x1="446.8326" y1="74.246" x2="438.9962" y2="92.6524" gradientTransform="matrix(0.9821 0.1883 0.1883 -0.9821 -376.3974 104.7621)">
			<stop  offset="0" style="stop-color:#FFFFFF"/>
			<stop  offset="1" style="stop-color:#C2D9E9"/>
		</linearGradient>
		<path class="st7" d="M74.8,100.5c2.5,2.3,4.2,5.2,5.5,8.3c-1.6-12.9-6.7-23.4-7.1-23.5c-6.8-1.9-9,0.9-9,0.9s2,5.9,4.5,12.4
			C70.7,97.5,73.3,99,74.8,100.5z"/>
		
			<linearGradient id="SVGID_10_" gradientUnits="userSpaceOnUse" x1="446.8195" y1="74.2729" x2="438.9903" y2="92.6623" gradientTransform="matrix(0.9821 0.1883 0.1883 -0.9821 -376.3974 104.7621)">
			<stop  offset="0" style="stop-color:#FFFFFF"/>
			<stop  offset="1" style="stop-color:#C2D9E9"/>
		</linearGradient>
		<path class="st8" d="M75.8,98.7c1.1,0.9,2.2,1.8,3.3,2.9c-2.1-9.4-5.5-16.3-5.9-16.4c-6.8-1.9-9,0.9-9,0.9s1.7,4.8,3.8,10.5
			C70.6,95.8,73.7,97.2,75.8,98.7z"/>
		<path class="st4" d="M76.9,115.9c0.4,0.1,0.6,0.6,0.5,1c-0.1,0.4-0.3,0.8-0.4,1.2c-0.1,0.3,0,0.6,0,0.9c0.1,0.6,0.1,1.3,0.2,1.9
			c0,0.1,0,0.2,0.1,0.3s0.2,0.1,0.3,0.1c0.3-0.1,0.5-0.4,0.6-0.7s0.1-0.7,0.2-1c0-0.1,0.1-0.2,0.2-0.2c0.1,0,0.1,0,0.2,0
			c0.3,0,0.6,0.1,0.8,0.2c0.2,0.2,0.3,0.5,0.2,0.8c-0.3,0.1-0.5,0.4-0.5,0.7c-0.2,0.1-0.5,0.2-0.6,0.4c-0.1,0.2-0.1,0.6,0.1,0.7
			c0.1,0.1,0.2,0,0.4,0c0.3,0,0.6-0.1,0.9-0.1c0.2,0,0.5-0.1,0.7-0.2c0.3-0.2,0.3-0.4,0.4-0.7c0-0.1,0.1-0.6,0.2-0.7
			c0,0,0.4-0.2,0.8-0.6c0.4-0.3,0.1-1.5,0.1-1.5s0.4-0.6,0.1-1.4c-0.3-0.8-1.2-2.8-1.2-2.8l-0.8-6c-2.4,2.2-6.6,1.7-6.6,1.7
			C74.7,112.5,76.9,115.9,76.9,115.9z"/>
		<path class="st5" d="M80.2,121.3c0.3-0.2,0.4-1.6,0.3-2c-0.1-0.6-0.6-0.8-1.1-0.9c-0.6-0.1-1.2,0.1-1.5,0.7
			c-0.3,0.5-0.2,1.1-0.3,1.7c0,0.1-0.1,0.2-0.2,0.2c-0.1,0-0.1-0.1-0.1-0.2c0-0.5-0.1-1-0.1-1.4c0-0.2,0-0.5,0.1-0.8
			c0.2-0.9,1-1.7,0.9-2.6c-0.1-0.9-0.9-1.6-1.4-2.3c-0.7-1.1-1.3-2.2-1.7-3.4c-0.8,0-1.3-0.1-1.3-0.1c1,2.4,3.2,5.8,3.2,5.8
			c0.4,0.1,0.6,0.6,0.5,1c-0.1,0.4-0.3,0.8-0.4,1.2c-0.1,0.3,0,0.6,0,0.9c0.1,0.6,0.1,1.3,0.2,1.9c0,0.1,0,0.2,0.1,0.3
			s0.2,0.1,0.3,0.1c0.3-0.1,0.5-0.4,0.6-0.7s0.1-0.7,0.2-1c0-0.1,0.1-0.2,0.2-0.2c0.1,0,0.1,0,0.2,0c0.3,0,0.6,0.1,0.8,0.2
			c0.2,0.2,0.3,0.5,0.2,0.8c-0.3,0.1-0.5,0.4-0.5,0.7c-0.2,0.1-0.5,0.2-0.6,0.4c-0.1,0.2-0.1,0.6,0.1,0.7c0.1,0,0.1,0,0.2,0
			C79.3,121.9,79.8,121.6,80.2,121.3z"/>
		<path class="st4" d="M27.6,30.4c0,0,1.8-3.2,1.5-11.5c-0.2-6.4-3.4-11.4-5-13.4c-0.4-0.5-0.2-1.3,0.3-1.6l0,0
			c0.5-0.3,1.2-0.1,1.4,0.4c1,2,3.4,7.1,5.2,14c2.4,9,4,8.4,4,8.4L27.6,30.4z"/>
		
			<linearGradient id="SVGID_11_" gradientUnits="userSpaceOnUse" x1="333.0398" y1="28.9759" x2="369.7727" y2="-6.4934" gradientTransform="matrix(1 0 0 -1 -318.6768 110.1417)">
			<stop  offset="0" style="stop-color:#FFFFFF"/>
			<stop  offset="1" style="stop-color:#A7C8DF"/>
		</linearGradient>
		<path class="st9" d="M75.8,121.6c0,9.4-5.4,15.7-5.4,15.7H23.7c0,0-7.5-5.9-7.5-15.7c0-18.8,13.3-51.2,29.8-51.2
			S75.8,102.9,75.8,121.6z"/>
		
			<linearGradient id="SVGID_12_" gradientUnits="userSpaceOnUse" x1="347.6857" y1="57.8445" x2="377.1982" y2="5.7878" gradientTransform="matrix(1 0 0 -1 -318.6768 110.1417)">
			<stop  offset="0" style="stop-color:#FFFFFF"/>
			<stop  offset="1" style="stop-color:#C2D9E9"/>
		</linearGradient>
		<path class="st10" d="M46,70.4c-3.1,0-7,1.2-9.4,3.2c-4,3.4,0.4,6.5,3.4,7.8c4.4,2,9.4,1,13.8,2.7c4,1.6,7.8,3.9,10.7,7.2
			c5.7,6.4,8.8,15.9,7.6,24.5c-0.9,6.5-3.8,12.8-8.1,17.6c-1.3,1.4-2.6,2.6-4.1,3.8h10.6c0,0,5.4-6.3,5.4-15.7
			C75.8,102.9,62.5,70.4,46,70.4z"/>
		<path class="st11" d="M32.1,27c-1.3-1.6-2.3-3.6-2.9-5.7c-0.1,6.5-1.5,9.1-1.5,9.1l5.3-2.6C32.6,27.6,32.3,27.3,32.1,27z"/>
		<path class="st4" d="M63.2,30.4c0,0-1.8-3.2-1.5-11.5c0.2-6.4,3.4-11.4,5-13.4c0.4-0.5,0.2-1.3-0.3-1.6l0,0
			c-0.5-0.3-1.2-0.1-1.4,0.4c-1,2-3.4,7.1-5.2,14c-2.4,9-4,8.4-4,8.4L63.2,30.4z"/>
		<path class="st11" d="M58.7,27c1.3-1.6,2.3-3.6,2.9-5.7c0.1,6.5,1.5,9.1,1.5,9.1l-5.2-2.6C58.2,27.6,58.5,27.3,58.7,27z"/>
		
			<linearGradient id="SVGID_13_" gradientUnits="userSpaceOnUse" x1="394.2636" y1="-1.665" x2="360.2093" y2="5.0925" gradientTransform="matrix(1 0 0 -1 -318.6768 110.1417)">
			<stop  offset="0" style="stop-color:#FFFFFF"/>
			<stop  offset="1" style="stop-color:#C2D9E9"/>
		</linearGradient>
		<path class="st12" d="M46,70.4c-6.1,0-11.8,4.5-16.5,11.1c0.4,0.3,0.9,0.5,1.4,0.8c1.1,0.5,2.2,1.1,3.4,1.6c2.3,1,4.6,1.6,7.1,2.2
			c4.7,1,9.7,0.9,14.2,2.8c4.4,1.9,7.9,5.7,10,10.1c1.8,3.8,2.4,8,1.7,12.2c-1.4,8.3-7.6,15.4-14.7,19.2c-3.7,2-7.7,3.1-11.7,3.9
			c-4.2,0.8-8.4,1.2-12.7,1c-2.5-0.1-5-0.5-7.5-1.1c1.6,2.1,3,3.2,3,3.2h46.7c0,0,5.4-6.3,5.4-15.7C75.8,102.9,62.5,70.4,46,70.4z"
			/>
		
			<linearGradient id="SVGID_14_" gradientUnits="userSpaceOnUse" x1="345.3467" y1="83.7752" x2="377.0509" y2="40.4522" gradientTransform="matrix(1 0 0 -1 -318.6768 110.1417)">
			<stop  offset="0" style="stop-color:#FFFFFF"/>
			<stop  offset="1" style="stop-color:#A7C8DF"/>
		</linearGradient>
		<path class="st13" d="M78.7,52.1C78.7,67,63.8,79,45.5,79c-18.3,0-33.2-12.1-33.2-27s14.9-26.9,33.2-26.9
			C63.8,25.1,78.7,37.2,78.7,52.1z"/>
		
			<linearGradient id="SVGID_15_" gradientUnits="userSpaceOnUse" x1="350.5539" y1="86.764" x2="369.1074" y2="47.5059" gradientTransform="matrix(1 0 0 -1 -318.6768 110.1417)">
			<stop  offset="0" style="stop-color:#FFFFFF"/>
			<stop  offset="1" style="stop-color:#C2D9E9"/>
		</linearGradient>
		<path class="st14" d="M71.5,54.9c-7.7,9.7-20.2,15.5-32.2,16c-7.2,0.3-15-1.3-20.8-5.9c-1.8-1.5-3.4-3.2-4.8-5.1
			C17.8,70.9,30.5,79,45.5,79c18.3,0,33.2-12.1,33.2-27c0-2.7-0.5-5.3-1.4-7.8C76,48.1,74,51.7,71.5,54.9z"/>
		
			<linearGradient id="SVGID_16_" gradientUnits="userSpaceOnUse" x1="351.5996" y1="86.5807" x2="369.9635" y2="47.7235" gradientTransform="matrix(1 0 0 -1 -318.6768 110.1417)">
			<stop  offset="0" style="stop-color:#FFFFFF"/>
			<stop  offset="1" style="stop-color:#C2D9E9"/>
		</linearGradient>
		<path class="st15" d="M77.3,56.2c-6.5,10.1-17.4,17.2-28.9,19.1c-5.8,1-11.7,1-17.4-0.2c-1.9-0.4-3.8-1-5.7-1.7
			c5.6,3.5,12.6,5.6,20.2,5.6C63,79,77.3,68,78.6,54.1C78.2,54.8,77.8,55.5,77.3,56.2z"/>
		
			<linearGradient id="SVGID_17_" gradientUnits="userSpaceOnUse" x1="352.1889" y1="84.2244" x2="366.6371" y2="53.653" gradientTransform="matrix(1 0 0 -1 -318.6768 110.1417)">
			<stop  offset="0" style="stop-color:#1C1132"/>
			<stop  offset="1" style="stop-color:#0C0017"/>
		</linearGradient>
		<path class="st16" d="M75.5,52.1c0,13.4-13.4,6-30,6s-30,7.4-30-6s13.4-24.4,30-24.4C62,27.7,75.5,38.6,75.5,52.1z"/>
		<path class="st17" d="M54.5,45.3c0,5.3-4.2,9.7-9.4,9.7c-5.2,0-9.4-4.3-9.4-9.7s4.2-9.7,9.4-9.7C50.3,35.6,54.5,40,54.5,45.3z
			 M52.8,45.3c0-4.4-3.5-8-7.7-8c-4.3,0-7.7,3.6-7.7,8s3.5,8,7.7,8S52.8,49.7,52.8,45.3z"/>
		<path class="st17" d="M51.3,45.3c0,3.5-2.8,6.4-6.2,6.4s-6.2-2.9-6.2-6.4s2.8-6.4,6.2-6.4C48.5,38.9,51.3,41.8,51.3,45.3z"/>
		<g class="st18">
			<path class="st19" d="M23.5,40.5c7.9-5.6,17.3-9.6,26.8-10.4c2.8-0.2,5.6-0.2,8.4,0.1c-4-1.6-8.5-2.5-13.3-2.5
				c-14.3,0-26.3,8.2-29.3,19.1C18.4,44.5,20.9,42.4,23.5,40.5z"/>
		</g>
		<g class="st18">
			<path class="st19" d="M67.8,35.9c-3-0.2-6.1-0.3-9.1-0.1c-7.5,0.5-15.1,2.6-22,5.5c-7.5,3.2-14.9,7.3-21.2,12.6
				c0.5,4.3,2.8,5.9,6.3,6.2c2.3-3.6,4.7-7,7.5-10.2c7.2-8.1,16.1-11.5,26.6-10.8c5.9,0.4,11.8,1.7,17.3,4
				C72,40.4,70.2,38,67.8,35.9z"/>
		</g>
		<path class="st4" d="M50.3,139.6c0,0,1.8-6,9.3-9.9c7.6-3.9,11.2-0.4,11.2-0.4L50.3,139.6z"/>
		<path class="st4" d="M41.9,139.6c0,0-1.8-6-9.3-9.9c-7.5-3.9-11.2-0.4-11.2-0.4L41.9,139.6z"/>
		<g class="st18">
			<path class="st19" d="M73.1,57c-6.5,2.4-13.3,0.1-19.8-0.3c-5.7-0.4-11.3,0.2-16.7,2c2.8-0.3,5.8-0.6,8.9-0.6
				c14.5,0,26.6,5.7,29.4-1.9C74.3,56.5,73.7,56.8,73.1,57z"/>
		</g>
		<g>
			<g>
				<defs>
					<polygon id="SVGID_18_" points="-25,1 -24,1 -25,2 					"/>
				</defs>
				<defs>
					<polygon id="SVGID_19_" points="-27,-1 -28,-1 -27,-2 					"/>
				</defs>
				<clipPath id="SVGID_20_">
					<use xlink:href="#SVGID_18_"  style="overflow:visible;"/>
				</clipPath>
				<clipPath id="SVGID_21_" class="st20">
					<use xlink:href="#SVGID_19_"  style="overflow:visible;"/>
				</clipPath>
				
					<radialGradient id="SVGID_22_" cx="-556.7072" cy="160.0666" r="46.1131" gradientTransform="matrix(0.4523 -3.113762e-03 -2.038100e-03 -0.3181 297.2399 95.6238)" gradientUnits="userSpaceOnUse">
					<stop  offset="0" style="stop-color:#FFFFFF"/>
					<stop  offset="9.750000e-02" style="stop-color:#F9F9F9"/>
					<stop  offset="0.2216" style="stop-color:#EAEAEA"/>
					<stop  offset="0.36" style="stop-color:#D0D0D0"/>
					<stop  offset="0.5089" style="stop-color:#ABABAB"/>
					<stop  offset="0.6661" style="stop-color:#7C7C7C"/>
					<stop  offset="0.8305" style="stop-color:#434343"/>
					<stop  offset="0.9978" style="stop-color:#010101"/>
					<stop  offset="1" style="stop-color:#000000"/>
				</radialGradient>
				<path class="st21" d="M66,46.3C66,54.4,56.7,61,45.2,61.1s-20.9-6.4-21-14.5c0-8.1,9.2-14.7,20.8-14.8
					C56.5,31.7,65.9,38.2,66,46.3z"/>
			</g>
		</g>
		<g>
			<g>
				<g>
					<defs>
						<polygon id="SVGID_23_" points="-25,1 -24,1 -25,2 						"/>
					</defs>
					<defs>
						<polygon id="SVGID_24_" points="-27,-1 -28,-1 -27,-2 						"/>
					</defs>
					<clipPath id="SVGID_25_">
						<use xlink:href="#SVGID_23_"  style="overflow:visible;"/>
					</clipPath>
					<clipPath id="SVGID_26_" class="st22">
						<use xlink:href="#SVGID_24_"  style="overflow:visible;"/>
					</clipPath>
					
						<radialGradient id="SVGID_27_" cx="-585.7556" cy="159.9104" r="42.4666" gradientTransform="matrix(0.5421 -3.736514e-03 -2.038100e-03 -0.3181 362.979 95.1189)" gradientUnits="userSpaceOnUse">
						<stop  offset="0" style="stop-color:#FFFFFF"/>
						<stop  offset="0.314" style="stop-color:#FDFDFD"/>
						<stop  offset="0.4512" style="stop-color:#F6F6F6"/>
						<stop  offset="0.5539" style="stop-color:#E9E9E9"/>
						<stop  offset="0.6396" style="stop-color:#D7D7D7"/>
						<stop  offset="0.7146" style="stop-color:#C0C0C0"/>
						<stop  offset="0.7821" style="stop-color:#A3A3A3"/>
						<stop  offset="0.844" style="stop-color:#818181"/>
						<stop  offset="0.9016" style="stop-color:#595959"/>
						<stop  offset="0.9536" style="stop-color:#2E2E2E"/>
						<stop  offset="1" style="stop-color:#000000"/>
					</radialGradient>
					<path class="st23" d="M66,46.3C66,54.4,56.7,61,45.2,61.1s-20.9-6.4-21-14.5c0-8.1,9.2-14.7,20.8-14.8
						C56.5,31.7,65.9,38.2,66,46.3z"/>
				</g>
			</g>
			
				<radialGradient id="SVGID_28_" cx="-585.7556" cy="159.9104" r="42.4666" gradientTransform="matrix(0.5421 -3.736514e-03 -2.038100e-03 -0.3181 362.979 95.1189)" gradientUnits="userSpaceOnUse">
				<stop  offset="0" style="stop-color:#39DB12"/>
				<stop  offset="0.272" style="stop-color:#39D913"/>
				<stop  offset="0.4227" style="stop-color:#38D115"/>
				<stop  offset="0.5437" style="stop-color:#37C319"/>
				<stop  offset="0.649" style="stop-color:#36AF1E"/>
				<stop  offset="0.744" style="stop-color:#349625"/>
				<stop  offset="0.8316" style="stop-color:#31772E"/>
				<stop  offset="0.9136" style="stop-color:#2F5138"/>
				<stop  offset="0.9891" style="stop-color:#2C2844"/>
				<stop  offset="1" style="stop-color:#2B2146"/>
			</radialGradient>
			<path class="st24" d="M66,46.3C66,54.4,56.7,61,45.2,61.1s-20.9-6.4-21-14.5c0-8.1,9.2-14.7,20.8-14.8
				C56.5,31.7,65.9,38.2,66,46.3z"/>
		</g>
		
			<radialGradient id="SVGID_29_" cx="559.5999" cy="-49.1967" r="95.9199" gradientTransform="matrix(0.4632 0 0 -0.479 -218.3663 -3.3034)" gradientUnits="userSpaceOnUse">
			<stop  offset="0" style="stop-color:#39DB12"/>
			<stop  offset="0.272" style="stop-color:#39D913"/>
			<stop  offset="0.4227" style="stop-color:#38D115"/>
			<stop  offset="0.5437" style="stop-color:#37C319"/>
			<stop  offset="0.649" style="stop-color:#36AF1E"/>
			<stop  offset="0.744" style="stop-color:#349625"/>
			<stop  offset="0.8316" style="stop-color:#31772E"/>
			<stop  offset="0.9136" style="stop-color:#2F5138"/>
			<stop  offset="0.9891" style="stop-color:#2C2844"/>
			<stop  offset="1" style="stop-color:#2B2146"/>
		</radialGradient>
		<path class="st25" d="M70.1,38.1c-1.1,2-2.4,3.8-4,5.5c-5.9,6.3-14.2,9.6-22.4,11.2c-5.4,1.1-10.9,1.4-16.4,1.2
			c-2.7-0.1-5.4-0.2-8.1-0.5c-1.2-0.1-2.3-0.3-3.4-0.6c2,9.4,14.5,3.1,29.7,3.1c16.6,0,30,7.4,30-6C75.5,46.9,73.5,42.1,70.1,38.1z"
			/>
		<g>
			<path class="st4" d="M41.2,65.2c0.1-1.8-0.9-3.4-2.3-3.4c-1.4,0-2.6,1.4-2.7,3.3s0.9,3.4,2.3,3.4C39.9,68.5,41.1,67.1,41.2,65.2z
				"/>
			<path class="st11" d="M38.6,68.5c-1-0.4-1.7-1.7-1.6-3.2c0.1-1.8,1.2-3.2,2.6-3.3c1,0.4,1.7,1.7,1.6,3.2
				C41.1,67,39.9,68.5,38.6,68.5z"/>
			<path class="st4" d="M34.8,65.2c0.1-1.4-0.7-2.6-1.8-2.6c-1.1,0-2,1.1-2,2.5c-0.1,1.4,0.7,2.6,1.8,2.6
				C33.8,67.8,34.8,66.6,34.8,65.2z"/>
			<path class="st11" d="M32.8,67.7c-0.8-0.3-1.3-1.3-1.2-2.5c0.1-1.4,1-2.5,2-2.5c0.8,0.3,1.3,1.3,1.2,2.5
				C34.8,66.6,33.9,67.7,32.8,67.7z"/>
		</g>
		<g>
			<path class="st4" d="M49.6,65.2c-0.1-1.8,0.9-3.4,2.3-3.4c1.4,0,2.6,1.4,2.7,3.3c0.1,1.8-0.9,3.4-2.3,3.4
				C50.8,68.5,49.6,67.1,49.6,65.2z"/>
			<path class="st11" d="M52.1,68.5c1-0.4,1.7-1.7,1.6-3.2c-0.1-1.8-1.2-3.2-2.6-3.3c-1,0.4-1.7,1.7-1.6,3.2
				C49.6,67,50.8,68.5,52.1,68.5z"/>
			<path class="st4" d="M55.9,65.2c-0.1-1.4,0.7-2.6,1.8-2.6c1.1,0,2,1.1,2.1,2.5c0.1,1.4-0.7,2.6-1.8,2.6
				C56.9,67.8,56,66.6,55.9,65.2z"/>
			<path class="st11" d="M57.9,67.7c0.8-0.3,1.3-1.3,1.2-2.5c-0.1-1.4-0.9-2.5-2-2.5c-0.8,0.3-1.3,1.3-1.2,2.5
				C56,66.6,56.8,67.7,57.9,67.7z"/>
		</g>
		
			<linearGradient id="SVGID_30_" gradientUnits="userSpaceOnUse" x1="376.4379" y1="-13.8443" x2="382.4853" y2="-29.008" gradientTransform="matrix(1 0 0 -1 -318.6768 110.1417)">
			<stop  offset="0" style="stop-color:#FFFFFF"/>
			<stop  offset="1" style="stop-color:#C2D9E9"/>
		</linearGradient>
		<path class="st26" d="M50.3,139.6h26.5c0,0-0.4-10.8-8.9-10.8C57.3,128.9,50.3,139.6,50.3,139.6z"/>
		
			<linearGradient id="SVGID_31_" gradientUnits="userSpaceOnUse" x1="375.9875" y1="-16.8497" x2="382.4352" y2="-28.2227" gradientTransform="matrix(1 0 0 -1 -318.6768 110.1417)">
			<stop  offset="0" style="stop-color:#FFFFFF"/>
			<stop  offset="1" style="stop-color:#C2D9E9"/>
		</linearGradient>
		<path class="st27" d="M61.8,138.1c-2.8,0.2-6.7,0.5-9.1-1.4c-1.6,1.7-2.4,3-2.4,3h26.5c0,0-0.1-3.1-1.5-5.9
			C71.4,136.6,66.6,137.7,61.8,138.1z"/>
		
			<linearGradient id="SVGID_32_" gradientUnits="userSpaceOnUse" x1="338.4558" y1="-17.567" x2="348.8376" y2="-31.6181" gradientTransform="matrix(1 0 0 -1 -318.6768 110.1417)">
			<stop  offset="0" style="stop-color:#FFFFFF"/>
			<stop  offset="1" style="stop-color:#C2D9E9"/>
		</linearGradient>
		<path class="st28" d="M41.8,139.6H15.3c0,0,0.4-10.8,8.9-10.8C34.8,128.9,41.8,139.6,41.8,139.6z"/>
		
			<linearGradient id="SVGID_33_" gradientUnits="userSpaceOnUse" x1="-418.7915" y1="-16.8489" x2="-412.3438" y2="-28.2219" gradientTransform="matrix(-1 0 0 -1 -383.9668 110.1417)">
			<stop  offset="0" style="stop-color:#FFFFFF"/>
			<stop  offset="1" style="stop-color:#C2D9E9"/>
		</linearGradient>
		<path class="st29" d="M30.3,138.1c2.8,0.2,6.7,0.5,9.1-1.4c1.6,1.7,2.4,3,2.4,3H15.3c0,0,0.1-3.1,1.5-5.9
			C20.8,136.6,25.6,137.7,30.3,138.1z"/>
		<rect x="49.1" y="139.6" class="st4" width="29.2" height="7.8"/>
		<path class="st11" d="M73.4,143.5c-4.7,1.6-9.9,1.7-14.8,1.4c-2.1-0.1-4.4-0.3-6.3-1.4c-1.6-0.9-2.4-2.4-2.4-4h-0.9v7.8h29.2v-6.5
			C76.9,142.1,75.2,142.9,73.4,143.5z"/>
		<g>
			
				<linearGradient id="SVGID_34_" gradientUnits="userSpaceOnUse" x1="389.6389" y1="37.4351" x2="386.1403" y2="20.8627" gradientTransform="matrix(1 0 0 -1 -318.6768 110.1417)">
				<stop  offset="0" style="stop-color:#FFFFFF"/>
				<stop  offset="1" style="stop-color:#A7C8DF"/>
			</linearGradient>
			<path class="st30" d="M60.8,76.1c0,0,14.9,4.1,17.9,15.6c2.2,8.4-17.6-0.6-21.1-14.4L60.8,76.1z"/>
			
				<linearGradient id="SVGID_35_" gradientUnits="userSpaceOnUse" x1="390.9681" y1="46.1833" x2="385.8142" y2="18.6099" gradientTransform="matrix(1 0 0 -1 -318.6768 110.1417)">
				<stop  offset="0" style="stop-color:#FFFFFF"/>
				<stop  offset="1" style="stop-color:#C2D9E9"/>
			</linearGradient>
			<path class="st31" d="M77.8,89c-3.4,0.8-7.3,0.3-10.2-1.4c-3.7-2.1-7-6.1-7.5-10.6c-0.1-0.2-0.1-0.4-0.1-0.6l-2.2,0.8
				C61.2,91,81,100.1,78.8,91.6C78.5,90.7,78.2,89.8,77.8,89z"/>
		</g>
		<rect x="14" y="139.6" class="st4" width="29.2" height="7.8"/>
		<path class="st11" d="M38.3,143.5c-4.7,1.6-9.9,1.7-14.8,1.4c-2.1-0.1-4.4-0.3-6.3-1.4c-1.5-0.9-2.4-2.4-2.4-4h-0.9v7.8h29.2v-6.5
			C41.8,142.1,40.1,142.9,38.3,143.5z"/>
		<g>
			
				<linearGradient id="SVGID_36_" gradientUnits="userSpaceOnUse" x1="338.8007" y1="29.6523" x2="344.8703" y2="18.1569" gradientTransform="matrix(1 0 0 -1 -318.6768 110.1417)">
				<stop  offset="0" style="stop-color:#FFFFFF"/>
				<stop  offset="1" style="stop-color:#A7C8DF"/>
			</linearGradient>
			<path class="st32" d="M30.2,76.1c0,0-14.9,4.1-17.9,15.6c-2.2,8.4,17.6-0.6,21-14.4L30.2,76.1z"/>
			
				<linearGradient id="SVGID_37_" gradientUnits="userSpaceOnUse" x1="-381.9122" y1="46.1812" x2="-387.0661" y2="18.6078" gradientTransform="matrix(-1 0 0 -1 -363.2031 110.1417)">
				<stop  offset="0" style="stop-color:#FFFFFF"/>
				<stop  offset="1" style="stop-color:#C2D9E9"/>
			</linearGradient>
			<path class="st33" d="M13.2,89c3.4,0.8,7.3,0.3,10.2-1.4c3.7-2.1,7-6.1,7.5-10.6c0-0.2,0.1-0.4,0.1-0.6l2.2,0.8
				C29.8,91,10,100.1,12.2,91.6C12.5,90.7,12.8,89.8,13.2,89z"/>
		</g>
		
			<linearGradient id="SVGID_38_" gradientUnits="userSpaceOnUse" x1="359.8932" y1="27.2816" x2="366.4792" y2="-2.4987" gradientTransform="matrix(1 0 0 -1 -318.6768 110.1417)">
			<stop  offset="0" style="stop-color:#FFFFFF"/>
			<stop  offset="1" style="stop-color:#C2D9E9"/>
		</linearGradient>
		<path class="st34" d="M66.7,113H23.2c-0.6,0-1-0.5-1-1V87.6c0-0.6,0.5-1,1-1h43.5c0.6,0,1,0.5,1,1v24.3
			C67.8,112.5,67.3,113,66.7,113z"/>
		
			<linearGradient id="SVGID_39_" gradientUnits="userSpaceOnUse" x1="360.0905" y1="27.4221" x2="366.3367" y2="-0.8216" gradientTransform="matrix(1 0 0 -1 -318.6768 110.1417)">
			<stop  offset="0" style="stop-color:#FFFFFF"/>
			<stop  offset="1" style="stop-color:#C2D9E9"/>
		</linearGradient>
		<path class="st35" d="M66.2,111.1H23.7c-0.5,0-1-0.4-1-1V87.4c0-0.6,0.5-1,1-1h42.6c0.6,0,1,0.4,1,1v22.7
			C67.2,110.7,66.8,111.1,66.2,111.1z"/>
		
			<linearGradient id="SVGID_40_" gradientUnits="userSpaceOnUse" x1="360.7538" y1="24.4051" x2="365.825" y2="1.4749" gradientTransform="matrix(1 0 0 -1 -318.6768 110.1417)">
			<stop  offset="0" style="stop-color:#1C1132"/>
			<stop  offset="1" style="stop-color:#0C0017"/>
		</linearGradient>
		<path class="st36" d="M63.5,108.5H26.4c-0.5,0-0.8-0.4-0.8-0.8V89.8c0-0.4,0.4-0.8,0.8-0.8h37.1c0.4,0,0.8,0.4,0.8,0.8v17.9
			C64.3,108.1,63.9,108.5,63.5,108.5z"/>
		<path class="st4" d="M53.9,115.6H36.2c-0.6,0-1.1-0.5-1.1-1.1l0,0c0-0.6,0.5-1.1,1.1-1.1h17.7c0.6,0,1.1,0.5,1.1,1.1l0,0
			C55,115.1,54.5,115.6,53.9,115.6z"/>
		<path class="st11" d="M53,114.1H37.1c-0.6,0-1,0.5-1,1.1v0.1c0,0.1,0,0.2,0,0.3c0,0,0.1,0,0.1,0h17.7c0,0,0.1,0,0.1,0
			c0-0.1,0-0.2,0-0.3v-0.1C54,114.6,53.6,114.1,53,114.1z"/>
		<path class="st4" d="M53.3,118.3H36.8c-0.6,0-1-0.5-1-1.1l0,0c0-0.6,0.5-1.1,1-1.1h16.5c0.6,0,1,0.5,1,1.1l0,0
			C54.3,117.8,53.9,118.3,53.3,118.3z"/>
		<path class="st11" d="M52.5,116.9H37.6c-0.5,0-1,0.4-1,1v0.1c0,0.1,0,0.2,0,0.3c0,0,0.1,0,0.1,0h16.5c0,0,0.1,0,0.1,0
			c0-0.1,0-0.2,0-0.3v-0.1C53.4,117.4,53,116.9,52.5,116.9z"/>
		<path class="st4" d="M38.4,122.3h13.2c0.4,0,0.8,0.4,0.8,0.8l0,0c0,0.5-0.4,0.8-0.8,0.8H38.4c-0.5,0-0.8-0.4-0.8-0.8l0,0
			C37.6,122.6,38,122.3,38.4,122.3z"/>
		<path class="st11" d="M39.1,123.4H51c0.4,0,0.8-0.4,0.8-0.8v-0.1c0-0.1,0-0.2,0-0.2c0,0-0.1,0-0.1,0H38.4c0,0-0.1,0-0.1,0
			c0,0.1,0,0.1,0,0.2v0.1C38.3,123,38.7,123.4,39.1,123.4z"/>
		<path class="st4" d="M39.1,124.4H51c0.4,0,0.7,0.3,0.7,0.8l0,0c0,0.4-0.3,0.8-0.7,0.8H39.1c-0.4,0-0.7-0.3-0.7-0.8l0,0
			C38.4,124.7,38.7,124.4,39.1,124.4z"/>
		<path class="st11" d="M39.7,125.4h10.7c0.4,0,0.7-0.3,0.7-0.7v-0.1c0-0.1,0-0.1,0-0.2c0,0,0,0-0.1,0H39.1c0,0,0,0-0.1,0
			c0,0.1,0,0.1,0,0.2v0.1C39,125,39.3,125.4,39.7,125.4z"/>
		<g class="st18">
			<path class="st19" d="M29.6,97.9c6.5-3.1,13.9-4.6,21-5.4c4.6-0.5,9.2-0.6,13.7,0.1v-2.8c0-0.4-0.3-0.8-0.8-0.8h-5.2
				c-0.7,0.2-1.4,0.4-2.1,0.6c-3.9,1.1-7.8,1.9-11.8,2.6c-2.9,0.5-5.9,0.7-8.8,1.1c-2.2,0.3-4.5,0.5-6.8,0.2
				c-1.1-0.1-2.3-0.3-3.3-0.8v7.7C26.8,99.4,28.2,98.6,29.6,97.9z"/>
		</g>
		<g class="st18">
			<path class="st19" d="M56.5,108.1c-1,0.1-2.1,0.3-3.1,0.4h10.2c0.4,0,0.8-0.4,0.8-0.8v-0.3C61.7,107.5,59.1,107.7,56.5,108.1z"/>
		</g>
		<g class="st18">
			<path class="st19" d="M58.3,100.4c-5.8,2-11.6,3.7-17.6,5c-5,1.1-10.1,1.9-15.2,1.7v0.7c0,0.4,0.3,0.8,0.8,0.8h10.9c0,0,0,0,0,0
				c8.3-4.1,17.7-6.5,27-6.5v-3.8C62.3,99,60.3,99.7,58.3,100.4z"/>
		</g>
		<g class="st37">
			<path class="st38" d="M58.7,101.2c-6,2.7-12.5,3.7-19,4.1c-3.3,0.2-6.7,0.2-10,0.1c-1.3,0-2.8,0-4.1-0.4v2.6
				c0,0.4,0.3,0.8,0.8,0.8h37.2c0.4,0,0.8-0.4,0.8-0.8v-9.8C62.6,99.2,60.7,100.3,58.7,101.2z"/>
		</g>
		<g>
			<path class="st17" d="M45.7,94.8c0.5,0.1,1.1,0.4,1.5,0.7c0.3,0.3,0.8,0.2,1.1-0.1c0.3-0.3,0.2-0.9-0.1-1.1
				c-0.6-0.5-1.3-0.9-2.1-1.1c-0.1,0-0.1,0-0.2,0c-0.4,0-0.7,0.3-0.8,0.6C45,94.3,45.2,94.7,45.7,94.8z"/>
			<path class="st17" d="M42.6,95.5c0.4-0.4,0.9-0.6,1.5-0.7c0.4-0.1,0.7-0.5,0.6-1c-0.1-0.4-0.4-0.6-0.8-0.6c-0.1,0-0.1,0-0.2,0
				c-0.8,0.2-1.5,0.5-2.1,1.1c-0.3,0.3-0.4,0.8-0.1,1.1C41.7,95.8,42.2,95.8,42.6,95.5z"/>
			<path class="st39" d="M48.2,96.8c0.2,0.5,0.4,1.1,0.4,1.7c0,0.4,0.3,0.8,0.8,0.8l0,0c0.4,0,0.8-0.4,0.8-0.8
				c0-0.8-0.2-1.6-0.5-2.4c-0.1-0.3-0.4-0.5-0.7-0.5c-0.1,0-0.2,0-0.3,0.1C48.2,96,48,96.4,48.2,96.8z"/>
			<path class="st40" d="M40.4,99.3c0.4,0,0.8-0.4,0.8-0.8v0c0-0.6,0.1-1.1,0.4-1.7c0.2-0.4,0-0.9-0.4-1.1c-0.1-0.1-0.2-0.1-0.3-0.1
				c-0.3,0-0.6,0.2-0.7,0.5c-0.3,0.7-0.5,1.5-0.5,2.4v0C39.6,99,39.9,99.3,40.4,99.3z"/>
			<path class="st41" d="M49.2,99.8c-0.1-0.1-0.2-0.1-0.3-0.1c-0.3,0-0.6,0.2-0.7,0.5c-0.2,0.5-0.6,1-1,1.3
				c-0.3,0.3-0.4,0.8-0.1,1.1s0.8,0.4,1.1,0.1c0.6-0.5,1.1-1.2,1.4-1.9C49.8,100.5,49.6,100,49.2,99.8z"/>
			<path class="st42" d="M42.6,101.5c-0.4-0.3-0.8-0.8-1-1.3c-0.1-0.3-0.4-0.5-0.7-0.5c-0.1,0-0.2,0-0.3,0.1
				c-0.4,0.2-0.6,0.7-0.4,1.1c0.3,0.7,0.8,1.4,1.5,1.9c0.3,0.3,0.8,0.2,1.1-0.1C43,102.3,42.9,101.8,42.6,101.5z"/>
			<path class="st43" d="M43.1,102.8c-0.1,0.4,0.2,0.9,0.6,1c0.8,0.2,1.6,0.2,2.3,0c0.4-0.1,0.7-0.5,0.6-1c-0.1-0.4-0.4-0.6-0.8-0.6
				c-0.1,0-0.1,0-0.2,0c-0.5,0.1-1.1,0.1-1.6,0C43.6,102.1,43.2,102.4,43.1,102.8z"/>
		</g>
		<g>
			<g>
				<defs>
					<polygon id="SVGID_41_" points="-25,1 -24,1 -25,2 					"/>
				</defs>
				<defs>
					<polygon id="SVGID_42_" points="-27,-1 -28,-1 -27,-2 					"/>
				</defs>
				<clipPath id="SVGID_43_">
					<use xlink:href="#SVGID_41_"  style="overflow:visible;"/>
				</clipPath>
				<clipPath id="SVGID_44_" class="st44">
					<use xlink:href="#SVGID_42_"  style="overflow:visible;"/>
				</clipPath>
				
					<radialGradient id="SVGID_45_" cx="-558.4691" cy="-2.7579" r="25.5581" gradientTransform="matrix(0.4523 -3.113762e-03 -2.038100e-03 -0.3181 297.2399 95.6238)" gradientUnits="userSpaceOnUse">
					<stop  offset="0" style="stop-color:#FFFFFF"/>
					<stop  offset="9.750000e-02" style="stop-color:#F9F9F9"/>
					<stop  offset="0.2216" style="stop-color:#EAEAEA"/>
					<stop  offset="0.36" style="stop-color:#D0D0D0"/>
					<stop  offset="0.5089" style="stop-color:#ABABAB"/>
					<stop  offset="0.6661" style="stop-color:#7C7C7C"/>
					<stop  offset="0.8305" style="stop-color:#434343"/>
					<stop  offset="0.9978" style="stop-color:#010101"/>
					<stop  offset="1" style="stop-color:#000000"/>
				</radialGradient>
				<path class="st45" d="M56.2,98.2c0,4.5-5.1,8.2-11.5,8.2c-6.4,0-11.6-3.6-11.6-8.1c0-4.5,5.1-8.2,11.5-8.2S56.2,93.7,56.2,98.2z
					"/>
			</g>
		</g>
		<g>
			<g>
				<g>
					<defs>
						<polygon id="SVGID_46_" points="-25,1 -24,1 -25,2 						"/>
					</defs>
					<defs>
						<polygon id="SVGID_47_" points="-27,-1 -28,-1 -27,-2 						"/>
					</defs>
					<clipPath id="SVGID_48_">
						<use xlink:href="#SVGID_46_"  style="overflow:visible;"/>
					</clipPath>
					<clipPath id="SVGID_49_" class="st46">
						<use xlink:href="#SVGID_47_"  style="overflow:visible;"/>
					</clipPath>
					
						<radialGradient id="SVGID_50_" cx="-587.2255" cy="-2.9141" r="23.5366" gradientTransform="matrix(0.5421 -3.736514e-03 -2.038100e-03 -0.3181 362.979 95.1189)" gradientUnits="userSpaceOnUse">
						<stop  offset="0" style="stop-color:#FFFFFF"/>
						<stop  offset="0.314" style="stop-color:#FDFDFD"/>
						<stop  offset="0.4512" style="stop-color:#F6F6F6"/>
						<stop  offset="0.5539" style="stop-color:#E9E9E9"/>
						<stop  offset="0.6396" style="stop-color:#D7D7D7"/>
						<stop  offset="0.7146" style="stop-color:#C0C0C0"/>
						<stop  offset="0.7821" style="stop-color:#A3A3A3"/>
						<stop  offset="0.844" style="stop-color:#818181"/>
						<stop  offset="0.9016" style="stop-color:#595959"/>
						<stop  offset="0.9536" style="stop-color:#2E2E2E"/>
						<stop  offset="1" style="stop-color:#000000"/>
					</radialGradient>
					<path class="st47" d="M56.2,98.2c0,4.5-5.1,8.2-11.5,8.2c-6.4,0-11.6-3.6-11.6-8.1c0-4.5,5.1-8.2,11.5-8.2S56.2,93.7,56.2,98.2
						z"/>
				</g>
			</g>
			
				<radialGradient id="SVGID_51_" cx="-587.2255" cy="-2.9141" r="23.5366" gradientTransform="matrix(0.5421 -3.736514e-03 -2.038100e-03 -0.3181 362.979 95.1189)" gradientUnits="userSpaceOnUse">
				<stop  offset="0" style="stop-color:#39DB12"/>
				<stop  offset="0.272" style="stop-color:#39D913"/>
				<stop  offset="0.4227" style="stop-color:#38D115"/>
				<stop  offset="0.5437" style="stop-color:#37C319"/>
				<stop  offset="0.649" style="stop-color:#36AF1E"/>
				<stop  offset="0.744" style="stop-color:#349625"/>
				<stop  offset="0.8316" style="stop-color:#31772E"/>
				<stop  offset="0.9136" style="stop-color:#2F5138"/>
				<stop  offset="0.9891" style="stop-color:#2C2844"/>
				<stop  offset="1" style="stop-color:#2B2146"/>
			</radialGradient>
			<path class="st48" d="M56.2,98.2c0,4.5-5.1,8.2-11.5,8.2c-6.4,0-11.6-3.6-11.6-8.1c0-4.5,5.1-8.2,11.5-8.2S56.2,93.7,56.2,98.2z"
				/>
		</g>
	</g>
</g>
</svg>
