<svg version="1.1" id="Capa_1" xmlns="http://www.w3.org/2000/svg" xmlns:xlink="http://www.w3.org/1999/xlink" x="0px" y="0px"
	 viewBox="0 0 110.55 110.55" style="enableBackground:new 0 0 110.55 110.55;" xml:space="preserve">
<style type="text/css">
	.st0{fill:#FFFFFF;}
	.st1{fill:#2db200;}
	.st2{font-family:'aAtmospheric';}
	.st3{font-size:29.4748px;}
</style>
<g>
	<g>
		<g>
			<polygon fill="#2db200" points="75.08,64.38 55.29,84.12 35.54,64.4 24.12,75.79 55.31,106.95 66.73,95.55 66.71,95.53 86.49,75.78 
							"/>
			<polygon fill="#2db200" points="19.62,60.09 14.01,65.69 19.57,71.24 25.18,65.64"/>
			<polygon fill="#2db200" points="9.87,50.34 4.26,55.94 9.81,61.49 15.42,55.9"/>
			<polygon fill="#2db200" points="25.23,46.11 19.68,40.56 14.07,46.15 19.62,51.7"/>
			<polygon fill="#2db200" points="29.41,61.48 35.02,55.88 29.46,50.33 23.85,55.93"/>
			<polygon fill="#2db200" points="85.3,65.88 90.86,71.43 96.47,65.83 90.91,60.28"/>
			<polygon fill="#2db200" points="75.54,56.13 81.1,61.68 86.71,56.08 81.15,50.53"/>
			<polygon fill="#2db200" points="90.91,51.89 96.52,46.29 90.96,40.74 85.35,46.34"/>
			<polygon fill="#2db200" points="100.75,50.52 95.14,56.12 100.69,61.67 106.3,56.07"/>
			<g>
				<text transform="matrix(1.0018 0 0 1 42.3044 66.9701)" fill="#2db200" font-family='aAtmospheric' font-size='29.4748px'>D</text>
			</g>
			<polygon fill="#2db200" points="75.08,47.46 55.29,27.72 35.54,47.45 24.12,36.05 55.31,4.9 66.73,16.29 66.71,16.32 86.49,36.06 
							"/>
		</g>
	</g>
</g>
</svg>
